<svg width="24" height="24" viewBox="0 0 24 24" fill="none" xmlns="http://www.w3.org/2000/svg">
<path d="M11.2727 4C15.2726 4 18.5454 7.27278 18.5454 11.2731C18.5454 13.0185 17.9273 14.6185 16.909 15.8549L19.7818 18.7278C20.0727 19.0186 20.0727 19.455 19.7818 19.746C19.6363 19.9277 19.4546 20.0005 19.2727 20.0005C19.0909 20.0005 18.909 19.9278 18.7636 19.7823L15.8908 16.9095C14.6181 17.9277 13.0181 18.5459 11.2727 18.5459C7.27278 18.5459 4 15.2731 4 11.2731C3.99988 7.27285 7.27278 4.00007 11.2727 4.00007L11.2727 4ZM11.2727 17.0911C14.4728 17.0911 17.0911 14.4729 17.0911 11.2727C17.0909 8.0729 14.4727 5.45467 11.2727 5.45467C8.07252 5.45467 5.4543 8.0729 5.4543 11.2731C5.4543 14.4729 8.07252 17.0911 11.2727 17.0911Z" fill="#060811"/>
</svg>
